<?xml version="1.0" encoding="utf-8"?>
<!-- Generator: Adobe Illustrator 25.0.1, SVG Export Plug-In . SVG Version: 6.00 Build 0)  -->
<svg version="1.1" xmlns="http://www.w3.org/2000/svg" xmlns:xlink="http://www.w3.org/1999/xlink" x="0px" y="0px"
	 viewBox="0 0 400 400" style="enable-background:new 0 0 400 400;" xml:space="preserve">
<style type="text/css">
	.st0{fill:none;stroke:#000000;stroke-width:25.0434;stroke-miterlimit:10;}
	.st1{fill:none;stroke:#000000;stroke-width:11.6869;stroke-miterlimit:10;}
</style>
<g id="Layer_1">
	<circle class="st0" cx="200" cy="200" r="180.49"/>
	<line class="st1" x1="200" y1="39.69" x2="200" y2="72.01"/>
	<line class="st1" x1="200" y1="328.95" x2="200" y2="361.27"/>
	<line class="st1" x1="328.99" y1="200" x2="361.31" y2="200"/>
	<line class="st1" x1="39.35" y1="200" x2="71.67" y2="200"/>
	<g>
		<g>
			<path d="M187.48,87.07c0,3.75,0,7.5,0,11.25c0,9.01,0,18.01,0,27.02c0,10.85,0,21.7,0,32.55c0,9.41,0,18.82,0,28.24
				c0,4.56-0.06,9.12,0,13.68c0,0.07,0,0.13,0,0.2c0,3.21,1.4,6.58,3.67,8.85c2.17,2.17,5.74,3.81,8.85,3.67
				c3.24-0.15,6.6-1.21,8.85-3.67c2.25-2.45,3.67-5.46,3.67-8.85c0-3.75,0-7.5,0-11.25c0-9.01,0-18.01,0-27.02
				c0-10.85,0-21.7,0-32.55c0-9.41,0-18.82,0-28.24c0-4.56,0.06-9.12,0-13.68c0-0.07,0-0.13,0-0.2c0-3.21-1.4-6.58-3.67-8.85
				c-2.17-2.17-5.74-3.81-8.85-3.67c-3.24,0.15-6.6,1.21-8.85,3.67C188.9,80.66,187.48,83.68,187.48,87.07L187.48,87.07z"/>
		</g>
	</g>
</g>
<g id="Layer_2">
	<g>
		<g>
			<path d="M200,212.52c8.23,0,16.45,0,24.68,0c13.1,0,26.2,0,39.3,0c2.99,0,5.99,0,8.98,0c3.21,0,6.58-1.4,8.85-3.67
				c2.17-2.17,3.81-5.74,3.67-8.85c-0.15-3.24-1.21-6.6-3.67-8.85c-2.45-2.25-5.46-3.67-8.85-3.67c-8.23,0-16.45,0-24.68,0
				c-13.1,0-26.2,0-39.3,0c-2.99,0-5.99,0-8.98,0c-3.21,0-6.58,1.4-8.85,3.67c-2.17,2.17-3.81,5.74-3.67,8.85
				c0.15,3.24,1.21,6.6,3.67,8.85C193.6,211.1,196.61,212.52,200,212.52L200,212.52z"/>
		</g>
	</g>
</g>
</svg>
