<?xml version="1.0" encoding="utf-8"?>
<!-- Generator: Adobe Illustrator 25.0.1, SVG Export Plug-In . SVG Version: 6.00 Build 0)  -->
<svg version="1.1" xmlns="http://www.w3.org/2000/svg" xmlns:xlink="http://www.w3.org/1999/xlink" x="0px" y="0px"
	 viewBox="0 0 600 350" style="enable-background:new 0 0 600 350;" xml:space="preserve">
<style type="text/css">
	.st0{fill:#FFFFFF;}
	.st1{fill:#ED1C24;}
	.st2{fill:#F15A29;}
	.st3{font-family:'IntegralCF-ExtraBold';}
	.st4{font-size:105px;}
</style>
<g id="Layer_2">
	<rect y="0" width="600" height="350"/>
</g>
<g id="Layer_1">
	<path class="st0" d="M539.77,97.67c-32.39,35.94-86.15,69.29-102.29,54.74c-16.14-14.55,11.45-71.48,43.85-107.42
		s87.87-38.74,87.87-38.74S572.16,61.73,539.77,97.67z"/>
	<circle cx="517.42" cy="63.7" r="19.7"/>
	<path class="st0" d="M455.87,89.75c0,0-32.01-1.56-42.22,3.14c-12.37,5.69-40.87,38.54-40.87,38.54s23.29-14.34,31.41-14.83
		c8.57-0.51,29.96,11.87,29.96,11.87L455.87,89.75z"/>
	<path class="st1" d="M447.4,171.46c-29.79,33.06-59.82,36.32-59.82,36.32s0.3-30.05,29.92-63.26c8.89-9.96,22.87-11.93,31.13-4.49
		C456.89,147.47,456.34,161.54,447.4,171.46z"/>
	<path class="st2" d="M447.67,164.54c-23.23,25.78-46.64,28.32-46.64,28.32s0.24-23.43,23.33-49.33c6.93-7.77,17.84-9.3,24.27-3.5
		S454.64,156.8,447.67,164.54z"/>
	<polygon class="st0" points="456.13,169.23 418.82,135.6 433.74,126.61 463.57,153.49 	"/>
	<path class="st0" d="M498.79,128.43c0,0,4.87,31.67,1.26,42.32c-4.38,12.89-34.09,44.64-34.09,44.64s11.85-24.65,11.5-32.78
		c-0.38-8.58-14.91-28.57-14.91-28.57L498.79,128.43z"/>
	<text transform="matrix(1 0 0 1 0 346.5322)" class="st0 st3 st4">FRONTIER</text>
	<text transform="matrix(1 0 0 1 0 267.5363)" class="st0 st3 st4">NEW</text>
</g>
</svg>
